<?xml version="1.0" encoding="UTF-8"?>
<!DOCTYPE svg PUBLIC "-//W3C//DTD SVG 1.1//EN" "http://www.w3.org/Graphics/SVG/1.1/DTD/svg11.dtd">
<svg xmlns="http://www.w3.org/2000/svg" version="1.1" width="612px" height="306px" style="shape-rendering:geometricPrecision; text-rendering:geometricPrecision; image-rendering:optimizeQuality; fill-rule:evenodd; clip-rule:evenodd" xmlns:xlink="http://www.w3.org/1999/xlink">
<g><path style="opacity:0.22" fill="#5c4554" d="M 356.5,27.5 C 357.466,23.9351 357.466,20.4351 356.5,17C 350.098,16.1824 343.765,16.5158 337.5,18C 334.855,19.2865 333.855,21.4532 334.5,24.5C 331.929,21.4044 332.596,18.9044 336.5,17C 343.418,15.4492 350.418,15.1158 357.5,16C 359.42,19.8969 359.086,23.7302 356.5,27.5 Z"/></g>
<g><path style="opacity:0.979" fill="#171416" d="M 356.5,27.5 C 356.082,33.3583 353.415,37.6916 348.5,40.5C 345.932,39.4411 343.765,37.7744 342,35.5C 338.985,32.1223 336.485,28.4556 334.5,24.5C 333.855,21.4532 334.855,19.2865 337.5,18C 343.765,16.5158 350.098,16.1824 356.5,17C 357.466,20.4351 357.466,23.9351 356.5,27.5 Z"/></g>
<g><path style="opacity:1" fill="#565751" d="M 342.5,20.5 C 346.351,19.1905 350.351,19.1905 354.5,20.5C 354.376,21.1067 354.043,21.44 353.5,21.5C 350.038,20.5184 346.371,20.185 342.5,20.5 Z"/></g>
<g><path style="opacity:1" fill="#edeae2" d="M 342.5,20.5 C 346.371,20.185 350.038,20.5184 353.5,21.5C 352.454,26.6595 350.454,31.3261 347.5,35.5C 343.936,31.3857 340.603,27.0524 337.5,22.5C 338.668,20.7826 340.335,20.1159 342.5,20.5 Z"/></g>
<g><path style="opacity:0.561" fill="#594855" d="M 297.5,32.5 C 294.277,31.1739 291.277,31.6739 288.5,34C 286.333,36.1667 284.167,38.3333 282,40.5C 281.616,42.1966 281.782,43.8632 282.5,45.5C 280.559,43.9894 280.059,41.9894 281,39.5C 284.273,34.8825 288.606,31.8825 294,30.5C 295.699,30.3866 296.866,31.0532 297.5,32.5 Z"/></g>
<g><path style="opacity:0.972" fill="#201a1e" d="M 297.5,32.5 C 300.085,36.3792 302.585,40.3792 305,44.5C 305.756,46.8087 305.256,48.8087 303.5,50.5C 300.628,53.1458 297.295,53.9792 293.5,53C 289.106,51.4182 285.439,48.9182 282.5,45.5C 281.782,43.8632 281.616,42.1966 282,40.5C 284.167,38.3333 286.333,36.1667 288.5,34C 291.277,31.6739 294.277,31.1739 297.5,32.5 Z M 292.5,36.5 C 295.644,38.9066 297.978,42.0733 299.5,46C 296.944,47.7179 294.278,47.7179 291.5,46C 290.016,44.4263 288.349,43.093 286.5,42C 288.396,39.932 290.396,38.0987 292.5,36.5 Z"/></g>
<g><path style="opacity:0.263" fill="#54404e" d="M 293.5,66.5 C 301.129,63.4824 304.129,65.8157 302.5,73.5C 302.826,67.1744 299.826,64.8411 293.5,66.5 Z"/></g>
<g><path style="opacity:0.963" fill="#141012" d="M 538.5,239.5 C 529.5,240.833 520.5,240.833 511.5,239.5C 495.574,236.119 483.407,227.453 475,213.5C 469.443,202.503 462.276,192.67 453.5,184C 441.604,176.721 428.937,171.054 415.5,167C 394.985,161.371 374.319,156.371 353.5,152C 345.928,149.762 340.095,145.262 336,138.5C 333.408,133.819 331.241,128.985 329.5,124C 332.963,118.257 337.963,114.424 344.5,112.5C 346.722,112.441 347.722,111.275 347.5,109C 347.133,106.292 346.466,103.792 345.5,101.5C 343.259,95.7353 345.259,93.0686 351.5,93.5C 353.92,93.7076 356.253,93.3742 358.5,92.5C 359.233,88.7961 359.9,85.1295 360.5,81.5C 365.741,80.7053 371.074,80.372 376.5,80.5C 398.996,85.3989 421.663,89.3989 444.5,92.5C 455.457,91.2609 466.123,88.7609 476.5,85C 486.66,80.09 496.326,74.4233 505.5,68C 514.812,62.8435 524.478,58.5102 534.5,55C 555.796,51.2096 573.629,57.3762 588,73.5C 601.847,98.3085 598.013,120.142 576.5,139C 570.154,143.174 563.488,146.841 556.5,150C 555.299,150.903 554.465,152.069 554,153.5C 553.376,158.223 553.71,162.89 555,167.5C 559.864,176.562 564.197,185.896 568,195.5C 570.633,218.675 560.8,233.342 538.5,239.5 Z"/></g>
<g><path style="opacity:1" fill="#f4f0e7" d="M 536.5,162.5 C 533.28,165.913 530.28,169.579 527.5,173.5C 513.055,183.596 497.721,185.096 481.5,178C 463.413,162.951 443.413,150.951 421.5,142C 410.558,138.846 399.558,136.013 388.5,133.5C 384.998,125.658 381.331,117.825 377.5,110C 383.876,104.141 391.21,99.8081 399.5,97C 394.563,97.812 389.563,98.1454 384.5,98C 382.074,94.4841 379.407,91.1508 376.5,88C 392.154,90.3315 407.821,92.9982 423.5,96C 442.795,100.119 461.462,98.119 479.5,90C 495.704,80.7318 512.038,71.7318 528.5,63C 549.436,56.2757 567.603,60.7757 583,76.5C 594.452,96.2129 592.452,114.546 577,131.5C 566.913,139.132 556.079,145.632 544.5,151C 540.388,153.927 537.721,157.76 536.5,162.5 Z"/></g>
<g><path style="opacity:1" fill="#141311" d="M 545.5,76.5 C 550.159,76.0146 551.492,77.848 549.5,82C 547.866,82.4935 546.199,82.6602 544.5,82.5C 544.325,80.3792 544.659,78.3792 545.5,76.5 Z"/></g>
<g><path style="opacity:1" fill="#1e1d1c" d="M 529.5,85.5 C 531.5,85.5 533.5,85.5 535.5,85.5C 535.893,90.663 533.727,92.3297 529,90.5C 528.36,88.735 528.527,87.0683 529.5,85.5 Z"/></g>
<g><path style="opacity:1" fill="#191613" d="M 549.5,83.5 C 552.5,83.1667 553.833,84.5 553.5,87.5C 552.167,87.5 550.833,87.5 549.5,87.5C 549.5,86.1667 549.5,84.8333 549.5,83.5 Z"/></g>
<g><path style="opacity:0.188" fill="#4f3a4d" d="M 360.5,81.5 C 359.9,85.1295 359.233,88.7961 358.5,92.5C 356.253,93.3742 353.92,93.7076 351.5,93.5C 353.599,92.3882 355.933,91.7215 358.5,91.5C 357.931,87.6707 358.598,84.3373 360.5,81.5 Z"/></g>
<g><path style="opacity:1" fill="#252021" d="M 539.5,90.5 C 543.692,90.4028 545.025,92.2361 543.5,96C 542.207,96.49 540.873,96.6567 539.5,96.5C 539.5,94.5 539.5,92.5 539.5,90.5 Z"/></g>
<g><path style="opacity:1" fill="#171615" d="M 575.5,93.5 C 581.136,106.61 578.136,117.61 566.5,126.5C 566.167,126.333 565.833,126.167 565.5,126C 568.462,119.908 571.295,113.742 574,107.5C 574.223,102.75 574.723,98.0836 575.5,93.5 Z"/></g>
<g><path style="opacity:1" fill="#242320" d="M 530.5,100.5 C 535.303,100.09 536.303,101.59 533.5,105C 532.207,105.49 530.873,105.657 529.5,105.5C 529.366,103.708 529.699,102.042 530.5,100.5 Z"/></g>
<g><path style="opacity:0.153" fill="#513b4b" d="M 345.5,101.5 C 346.466,103.792 347.133,106.292 347.5,109C 347.722,111.275 346.722,112.441 344.5,112.5C 345.028,111.279 345.695,110.113 346.5,109C 345.565,106.619 345.232,104.119 345.5,101.5 Z"/></g>
<g><path style="opacity:1" fill="#c2bfb9" d="M 363.5,84.5 C 365.604,84.2011 367.604,84.5344 369.5,85.5C 372.423,90.5909 375.923,95.2576 380,99.5C 380.667,100.5 380.667,101.5 380,102.5C 376.663,104.06 374.163,106.393 372.5,109.5C 374.989,114.796 377.155,120.129 379,125.5C 373.822,127.394 368.655,129.394 363.5,131.5C 359.637,137.768 353.97,140.934 346.5,141C 342.142,136.137 338.809,130.637 336.5,124.5C 340.921,120.581 345.754,117.248 351,114.5C 351.638,113.391 352.138,112.225 352.5,111C 351.454,106.89 350.787,102.723 350.5,98.5C 355.149,98.0707 359.649,97.0707 364,95.5C 364.45,91.8125 364.283,88.1458 363.5,84.5 Z"/></g>
<g><path style="opacity:1" fill="#242221" d="M 527.5,129.5 C 533.175,129.86 533.842,131.86 529.5,135.5C 527.717,133.977 527.051,131.977 527.5,129.5 Z"/></g>
<g><path style="opacity:0.964" fill="#141113" d="M 293.5,66.5 C 299.826,64.8411 302.826,67.1744 302.5,73.5C 301.01,77.6846 299.01,81.6846 296.5,85.5C 299.095,87.7173 301.595,90.0506 304,92.5C 304.667,93.8333 304.667,95.1667 304,96.5C 298.287,101.937 292.12,106.77 285.5,111C 294.745,114.411 297.079,120.411 292.5,129C 296.447,130.085 299.947,131.919 303,134.5C 303.756,136.809 303.256,138.809 301.5,140.5C 299.333,141.948 297,143.115 294.5,144C 264.837,152.665 235.504,162.332 206.5,173C 195.769,177.199 185.436,182.199 175.5,188C 170.667,191.5 166.5,195.667 163,200.5C 156.433,213.704 149.1,226.371 141,238.5C 132.697,247.327 122.531,252.661 110.5,254.5C 105.187,255.098 99.8537,255.431 94.5,255.5C 80.9925,254.8 70.1591,249.133 62,238.5C 60.8638,236.257 60.0305,233.924 59.5,231.5C 56.8922,222.843 56.8922,214.176 59.5,205.5C 61.702,198.755 64.202,192.089 67,185.5C 69.0409,179.593 68.5409,173.927 65.5,168.5C 55.4756,164.988 46.1423,160.155 37.5,154C 13.2959,129.202 13.6292,104.868 38.5,81C 58.5052,68.1113 79.1718,67.1113 100.5,78C 111.316,83.5738 122.316,88.9071 133.5,94C 153.304,101.315 173.304,101.982 193.5,96C 214.94,90.1303 236.273,83.9636 257.5,77.5C 260.152,77.5905 262.485,76.9238 264.5,75.5C 273.763,71.5254 283.43,68.5254 293.5,66.5 Z"/></g>
<g><path style="opacity:1" fill="#f4f0e8" d="M 288.5,121.5 C 267.096,130.348 245.429,138.515 223.5,146C 220.487,146.502 217.487,147.002 214.5,147.5C 213.791,146.596 212.791,146.263 211.5,146.5C 210.897,148.19 209.897,149.69 208.5,151C 192.001,156.256 176.001,162.589 160.5,170C 144.883,181.283 129.549,192.95 114.5,205C 109.329,207.417 103.996,207.917 98.5,206.5C 99.3279,205.585 100.328,204.919 101.5,204.5C 102.258,205.811 103.258,206.311 104.5,206C 103.891,204.052 103.224,202.218 102.5,200.5C 100.444,199.784 98.277,199.117 96,198.5C 94.5897,185.935 90.5897,174.269 84,163.5C 76.2808,157.474 67.9475,152.474 59,148.5C 48.2918,142.483 38.9585,134.816 31,125.5C 28.0427,121.264 26.5427,116.597 26.5,111.5C 29.4223,96.3983 38.0889,85.8983 52.5,80C 63.3656,75.8198 74.3656,75.4865 85.5,79C 103.099,86.1343 120.432,93.801 137.5,102C 151.954,106.399 166.621,107.399 181.5,105C 218.583,95.3049 255.416,84.8049 292,73.5C 292.833,73.8333 293.667,74.1667 294.5,74.5C 292.58,77.3388 290.913,80.3388 289.5,83.5C 284.833,84.1667 280.167,84.8333 275.5,85.5C 280.874,87.8463 286.54,89.3463 292.5,90C 297.802,91.8634 298.469,94.5301 294.5,98C 283.957,102.597 275.957,109.931 270.5,120C 270.667,120.5 270.833,121 271,121.5C 273.682,118.65 276.516,115.984 279.5,113.5C 281.833,115 284.167,116.5 286.5,118C 287.823,118.816 288.489,119.983 288.5,121.5 Z"/></g>
<g><path style="opacity:1" fill="#141312" d="M 210.5,100.5 C 211.552,100.351 212.552,100.517 213.5,101C 199.481,110.007 184.147,114.34 167.5,114C 167.043,113.586 166.709,113.086 166.5,112.5C 171.159,111.63 175.825,110.797 180.5,110C 190.4,106.087 200.4,102.92 210.5,100.5 Z"/></g>
<g><path style="opacity:1" fill="#141312" d="M 46.5,91.5 C 47.3764,91.3691 48.0431,91.7025 48.5,92.5C 44.6717,96.1496 41.8384,100.483 40,105.5C 38.9617,111.645 37.6283,117.645 36,123.5C 32.4353,110.398 35.9353,99.7313 46.5,91.5 Z"/></g>
<g><path style="opacity:0.125" fill="#624b5b" d="M 264.5,75.5 C 262.485,76.9238 260.152,77.5905 257.5,77.5C 259.515,76.0762 261.848,75.4095 264.5,75.5 Z"/></g>
<g><path style="opacity:0.964" fill="#181216" d="M 357.5,186.5 C 355.218,187.39 352.885,187.556 350.5,187C 349.874,186.25 349.374,185.416 349,184.5C 347.79,177.888 347.29,171.222 347.5,164.5C 347.97,163.307 348.97,162.64 350.5,162.5C 354.823,163.993 359.156,165.493 363.5,167C 368.121,169.077 369.955,172.577 369,177.5C 365.845,181.503 362.012,184.503 357.5,186.5 Z M 353.5,169.5 C 355.932,170.958 358.599,172.125 361.5,173C 362.022,173.561 362.355,174.228 362.5,175C 360.727,177.384 358.727,179.551 356.5,181.5C 355.504,181.414 354.671,181.748 354,182.5C 352.795,179.108 351.961,175.608 351.5,172C 351.684,170.624 352.351,169.791 353.5,169.5 Z"/></g>
<g><path style="opacity:0.078" fill="#4e3442" d="M 353.5,169.5 C 352.351,169.791 351.684,170.624 351.5,172C 351.961,175.608 352.795,179.108 354,182.5C 354.671,181.748 355.504,181.414 356.5,181.5C 355.415,183.582 353.915,183.916 352,182.5C 350.782,177.545 350.449,172.545 351,167.5C 351.995,168.066 352.828,168.733 353.5,169.5 Z"/></g>
<g><path style="opacity:1" fill="#c3c0b9" d="M 388.5,133.5 C 399.558,136.013 410.558,138.846 421.5,142C 443.413,150.951 463.413,162.951 481.5,178C 497.721,185.096 513.055,183.596 527.5,173.5C 530.28,169.579 533.28,165.913 536.5,162.5C 536.351,163.552 536.517,164.552 537,165.5C 538.586,162.659 540.42,159.993 542.5,157.5C 542.92,161.781 543.087,166.115 543,170.5C 545.187,165.613 547.187,160.613 549,155.5C 549.333,159.5 549.667,163.5 550,167.5C 554.006,176.843 558.006,186.177 562,195.5C 564.445,217.733 554.612,230.9 532.5,235C 516.826,236.584 502.826,232.584 490.5,223C 481.611,211.11 473.111,198.943 465,186.5C 460.926,182.881 456.759,179.381 452.5,176C 439.485,169.884 426.152,164.55 412.5,160C 393.031,154.216 373.365,149.216 353.5,145C 357.286,143.607 360.952,141.941 364.5,140C 368.211,139.825 371.878,139.325 375.5,138.5C 372.454,137.625 369.454,136.625 366.5,135.5C 371.618,133.405 376.784,131.405 382,129.5C 385.015,132.182 387.681,135.182 390,138.5C 390.613,136.505 390.113,134.838 388.5,133.5 Z"/></g>
<g><path style="opacity:1" fill="#141312" d="M 462.5,175.5 C 465.829,175.264 468.829,176.097 471.5,178C 477.041,182.165 480.875,187.332 483,193.5C 477.577,190.081 472.744,185.915 468.5,181C 466.725,179.561 464.725,178.561 462.5,178C 461.402,177.23 461.402,176.397 462.5,175.5 Z"/></g>
<g><path style="opacity:0.184" fill="#443042" d="M 347.5,164.5 C 347.29,171.222 347.79,177.888 349,184.5C 349.374,185.416 349.874,186.25 350.5,187C 352.885,187.556 355.218,187.39 357.5,186.5C 356.508,188.026 355.008,188.693 353,188.5C 350.425,188.91 348.758,187.91 348,185.5C 346.418,178.372 346.251,171.372 347.5,164.5 Z"/></g>
<g><path style="opacity:1" fill="#c3c0b9" d="M 26.5,111.5 C 26.5427,116.597 28.0427,121.264 31,125.5C 38.9585,134.816 48.2918,142.483 59,148.5C 67.9475,152.474 76.2808,157.474 84,163.5C 90.5897,174.269 94.5897,185.935 96,198.5C 98.277,199.117 100.444,199.784 102.5,200.5C 103.224,202.218 103.891,204.052 104.5,206C 103.258,206.311 102.258,205.811 101.5,204.5C 100.328,204.919 99.3279,205.585 98.5,206.5C 103.996,207.917 109.329,207.417 114.5,205C 129.549,192.95 144.883,181.283 160.5,170C 176.001,162.589 192.001,156.256 208.5,151C 209.897,149.69 210.897,148.19 211.5,146.5C 211.5,147.833 211.5,149.167 211.5,150.5C 212.5,150.5 213.5,150.5 214.5,150.5C 214.5,149.5 214.5,148.5 214.5,147.5C 217.487,147.002 220.487,146.502 223.5,146C 245.429,138.515 267.096,130.348 288.5,121.5C 287.801,124.573 286.801,127.573 285.5,130.5C 281.833,131.167 278.167,131.833 274.5,132.5C 280.204,133.676 285.871,135.009 291.5,136.5C 266.858,145.103 242.192,153.603 217.5,162C 201.837,167.666 186.837,174.666 172.5,183C 167.647,186.855 163.147,191.022 159,195.5C 153.079,205.673 147.413,216.006 142,226.5C 131.313,241.515 116.646,249.515 98,250.5C 73.5568,248.733 61.8901,235.733 63,211.5C 66.2891,202.59 69.2891,193.59 72,184.5C 72.9375,179.473 72.4375,174.64 70.5,170C 77.194,171.288 82.0273,175.122 85,181.5C 85.7063,179.029 85.373,176.695 84,174.5C 81.4634,171.628 78.6301,169.128 75.5,167C 66.4126,163.292 57.4126,159.292 48.5,155C 32.4393,144.711 25.106,130.211 26.5,111.5 Z"/></g>
<g><path style="opacity:1" fill="#26211e" d="M 211.5,146.5 C 212.791,146.263 213.791,146.596 214.5,147.5C 214.5,148.5 214.5,149.5 214.5,150.5C 213.5,150.5 212.5,150.5 211.5,150.5C 211.5,149.167 211.5,147.833 211.5,146.5 Z"/></g>
<g><path style="opacity:0.975" fill="#181417" d="M 304.5,161.5 C 305.397,162.598 306.23,162.598 307,161.5C 310.73,165.79 313.563,170.624 315.5,176C 319.717,176.013 323.884,175.513 328,174.5C 332.084,175.201 333.417,177.535 332,181.5C 320.126,192.192 306.96,201.025 292.5,208C 290.08,208.687 287.913,208.187 286,206.5C 283.673,202.578 283.34,198.578 285,194.5C 290.49,182.845 296.99,171.845 304.5,161.5 Z"/></g>
<g><path style="opacity:1" fill="#edeae2" d="M 305.5,168.5 C 308.19,172.169 310.524,176.169 312.5,180.5C 316.798,181.104 321.131,181.27 325.5,181C 314.588,189.043 303.088,196.21 291,202.5C 289.513,200.728 289.18,198.728 290,196.5C 293.725,186.299 298.892,176.965 305.5,168.5 Z"/></g>
<g><path style="opacity:1" fill="#1f1e1d" d="M 85.5,198.5 C 90.2196,198.206 91.8863,200.206 90.5,204.5C 84.7402,206.212 83.0736,204.212 85.5,198.5 Z"/></g>
<g><path style="opacity:1" fill="#120e0e" d="M 102.5,200.5 C 102.5,201.5 102.5,202.5 102.5,203.5C 101.5,203.5 100.5,203.5 99.5,203.5C 99.5,202.5 99.5,201.5 99.5,200.5C 100.5,200.5 101.5,200.5 102.5,200.5 Z"/></g>
<g><path style="opacity:1" fill="#1a1917" d="M 91.5,210.5 C 96.1585,210.015 97.4919,211.848 95.5,216C 94.2068,216.49 92.8734,216.657 91.5,216.5C 91.5,214.5 91.5,212.5 91.5,210.5 Z"/></g>
<g><path style="opacity:1" fill="#2e2d2a" d="M 532.5,208.5 C 534.167,208.5 535.833,208.5 537.5,208.5C 537.985,213.159 536.152,214.492 532,212.5C 531.421,211.072 531.588,209.738 532.5,208.5 Z"/></g>
<g><path style="opacity:1" fill="#201f1d" d="M 81.5,215.5 C 85.1378,214.737 86.6378,216.07 86,219.5C 81.4155,221.413 79.9155,220.079 81.5,215.5 Z"/></g>
<g><path style="opacity:0.196" fill="#543e4c" d="M 59.5,205.5 C 56.8922,214.176 56.8922,222.843 59.5,231.5C 57.1941,227.773 56.1941,223.606 56.5,219C 56.5939,215.112 57.0939,211.279 58,207.5C 58.2784,206.584 58.7784,205.918 59.5,205.5 Z"/></g>
<g><path style="opacity:1" fill="#191815" d="M 519.5,218.5 C 520.833,218.5 522.167,218.5 523.5,218.5C 524.244,221.95 522.91,223.616 519.5,223.5C 519.5,221.833 519.5,220.167 519.5,218.5 Z"/></g>
<g><path style="opacity:1" fill="#21211d" d="M 529.5,218.5 C 530.833,218.5 532.167,218.5 533.5,218.5C 533.5,219.833 533.5,221.167 533.5,222.5C 532.167,222.5 530.833,222.5 529.5,222.5C 529.5,221.167 529.5,219.833 529.5,218.5 Z"/></g>
<g><path style="opacity:1" fill="#333230" d="M 90.5,224.5 C 91.8333,224.5 93.1667,224.5 94.5,224.5C 94.5,226.167 94.5,227.833 94.5,229.5C 93.1667,229.5 91.8333,229.5 90.5,229.5C 90.5,227.833 90.5,226.167 90.5,224.5 Z"/></g>
<g><path style="opacity:0.273" fill="#473641" d="M 511.5,239.5 C 520.5,240.833 529.5,240.833 538.5,239.5C 534.272,241.025 529.772,241.692 525,241.5C 520.228,241.692 515.728,241.025 511.5,239.5 Z"/></g>
<g><path style="opacity:0.117" fill="#4e3b45" d="M 110.5,254.5 C 107.45,255.935 104.117,256.602 100.5,256.5C 98.3035,256.495 96.3035,256.162 94.5,255.5C 99.8537,255.431 105.187,255.098 110.5,254.5 Z"/></g>
</svg>
