<?xml version="1.0" encoding="UTF-8"?>
<!DOCTYPE svg PUBLIC "-//W3C//DTD SVG 1.1//EN" "http://www.w3.org/Graphics/SVG/1.1/DTD/svg11.dtd">
<svg xmlns="http://www.w3.org/2000/svg" version="1.1" width="612px" height="306px" style="shape-rendering:geometricPrecision; text-rendering:geometricPrecision; image-rendering:optimizeQuality; fill-rule:evenodd; clip-rule:evenodd" xmlns:xlink="http://www.w3.org/1999/xlink">
<g><path style="opacity:0.977" fill="#191919" d="M 534.5,175.5 C 534.427,177.027 535.094,178.027 536.5,178.5C 543.714,185.384 549.38,193.384 553.5,202.5C 553.41,205.152 554.076,207.485 555.5,209.5C 556.775,228.968 548.442,242.302 530.5,249.5C 531.684,248.312 531.684,247.145 530.5,246C 531.833,245.333 533.167,244.667 534.5,244C 533.552,243.517 532.552,243.351 531.5,243.5C 539.244,238.584 545.077,231.918 549,223.5C 551.675,213.903 550.342,204.903 545,196.5C 540.333,190.5 535.667,184.5 531,178.5C 528.248,173.162 526.582,167.495 526,161.5C 520.901,165.375 517.568,170.375 516,176.5C 515.505,174.527 515.338,172.527 515.5,170.5C 516.44,167.286 517.94,164.286 520,161.5C 528.63,154.539 536.963,147.205 545,139.5C 557.363,123.667 559.363,106.667 551,88.5C 543.806,78.983 534.306,73.1497 522.5,71C 513.327,69.8644 504.327,70.531 495.5,73C 481.718,81.1053 469.385,91.1053 458.5,103C 453.602,107.732 448.269,111.899 442.5,115.5C 441.209,114.527 441.209,113.527 442.5,112.5C 441.675,111.614 440.675,111.281 439.5,111.5C 451.877,101.301 463.877,90.4673 475.5,79C 496.75,61.9347 519.417,59.9347 543.5,73C 561.344,87.533 566.177,105.7 558,127.5C 551.868,140.301 542.868,150.634 531,158.5C 530.423,164.524 531.589,170.191 534.5,175.5 Z"/></g>
<g><path style="opacity:1" fill="#f4f0e8" d="M 188.5,123.5 C 200.215,129.792 212.882,132.625 226.5,132C 279.833,132.667 333.167,132.667 386.5,132C 407.14,132.679 425.807,127.179 442.5,115.5C 448.269,111.899 453.602,107.732 458.5,103C 469.385,91.1053 481.718,81.1053 495.5,73C 504.327,70.531 513.327,69.8644 522.5,71C 534.306,73.1497 543.806,78.983 551,88.5C 559.363,106.667 557.363,123.667 545,139.5C 536.963,147.205 528.63,154.539 520,161.5C 517.94,164.286 516.44,167.286 515.5,170.5C 514.655,181.545 512.822,192.545 510,203.5C 506.081,207.531 501.248,209.531 495.5,209.5C 490.236,208.147 484.903,206.98 479.5,206C 463.805,196.823 447.138,189.823 429.5,185C 395.643,180.784 361.643,178.95 327.5,179.5C 282.034,179.171 236.701,181.337 191.5,186C 186.298,186.869 181.298,188.036 176.5,189.5C 176.5,190.167 176.167,190.5 175.5,190.5C 168,191.04 160.666,192.54 153.5,195C 141.846,200.492 130.513,206.492 119.5,213C 107.255,217.836 100.588,213.836 99.5,201C 100.696,192.111 103.196,183.611 107,175.5C 110.088,165.494 108.755,156.161 103,147.5C 93.6808,138.681 84.5142,129.681 75.5,120.5C 69.534,113.442 66.2007,105.275 65.5,96C 66.0305,93.1834 66.3639,90.35 66.5,87.5C 72.7461,79.0302 81.0794,73.5302 91.5,71C 107.126,67.7692 121.126,71.1025 133.5,81C 145.133,90.9643 156.466,101.298 167.5,112C 174.154,116.492 181.154,120.326 188.5,123.5 Z"/></g>
<g><path style="opacity:1" fill="#20201e" d="M 540.5,104.5 C 541.496,104.414 542.329,104.748 543,105.5C 544.06,116.715 541.06,126.715 534,135.5C 533.333,134.167 533.333,132.833 534,131.5C 538.125,122.961 540.292,113.961 540.5,104.5 Z"/></g>
<g><path style="opacity:1" fill="#7f7b74" d="M 469.5,106.5 C 469.5,107.5 469.5,108.5 469.5,109.5C 470.5,109.5 471.5,109.5 472.5,109.5C 472.5,108.5 472.5,107.5 472.5,106.5C 473.434,107.568 473.768,108.901 473.5,110.5C 471.833,110.5 470.167,110.5 468.5,110.5C 468.232,108.901 468.566,107.568 469.5,106.5 Z"/></g>
<g><path style="opacity:1" fill="#120e0b" d="M 469.5,106.5 C 470.5,106.5 471.5,106.5 472.5,106.5C 472.5,107.5 472.5,108.5 472.5,109.5C 471.5,109.5 470.5,109.5 469.5,109.5C 469.5,108.5 469.5,107.5 469.5,106.5 Z"/></g>
<g><path style="opacity:0.987" fill="#0d0c0c" d="M 439.5,111.5 C 440.675,111.281 441.675,111.614 442.5,112.5C 441.209,113.527 441.209,114.527 442.5,115.5C 425.807,127.179 407.14,132.679 386.5,132C 333.167,132.667 279.833,132.667 226.5,132C 212.882,132.625 200.215,129.792 188.5,123.5C 187.402,122.603 187.402,121.77 188.5,121C 190.227,121.526 191.894,121.359 193.5,120.5C 198.24,121.636 202.907,122.97 207.5,124.5C 217.609,126.262 227.942,126.928 238.5,126.5C 238.833,126.5 239.167,126.5 239.5,126.5C 261.125,127.156 282.792,127.489 304.5,127.5C 334.349,127.697 364.016,127.03 393.5,125.5C 400.226,125.127 406.893,124.294 413.5,123C 422.572,119.962 431.238,116.128 439.5,111.5 Z"/></g>
<g><path style="opacity:1" fill="#171717" d="M 455.5,113.5 C 457.167,113.5 458.833,113.5 460.5,113.5C 460.5,115.167 460.5,116.833 460.5,118.5C 458.833,118.5 457.167,118.5 455.5,118.5C 455.5,116.833 455.5,115.167 455.5,113.5 Z"/></g>
<g><path style="opacity:1" fill="#3a3632" d="M 465.5,118.5 C 466.5,118.5 467.5,118.5 468.5,118.5C 468.5,119.833 468.5,121.167 468.5,122.5C 467.167,122.5 465.833,122.5 464.5,122.5C 464.433,121.041 464.766,119.708 465.5,118.5 Z"/></g>
<g><path style="opacity:0.243" fill="#999999" d="M 207.5,124.5 C 218.006,124.855 228.339,125.522 238.5,126.5C 227.942,126.928 217.609,126.262 207.5,124.5 Z"/></g>
<g><path style="opacity:0.493" fill="#9e9e9e" d="M 239.5,126.5 C 290.612,126.239 341.945,125.906 393.5,125.5C 364.016,127.03 334.349,127.697 304.5,127.5C 282.792,127.489 261.125,127.156 239.5,126.5 Z"/></g>
<g><path style="opacity:1" fill="#161614" d="M 168.5,122.5 C 173.947,125.731 179.281,129.231 184.5,133C 194.191,135.56 203.858,138.227 213.5,141C 203.417,140.547 193.417,139.214 183.5,137C 177.315,133.314 172.315,128.48 168.5,122.5 Z"/></g>
<g><path style="opacity:0.18" fill="#898989" d="M 83.5,172.5 C 83.573,174.027 82.9063,175.027 81.5,175.5C 81.427,173.973 82.0937,172.973 83.5,172.5 Z"/></g>
<g><path style="opacity:0.165" fill="#8f8f94" d="M 81.5,175.5 C 81.573,177.027 80.9063,178.027 79.5,178.5C 79.427,176.973 80.0937,175.973 81.5,175.5 Z"/></g>
<g><path style="opacity:0.224" fill="#7f7f80" d="M 534.5,175.5 C 535.906,175.973 536.573,176.973 536.5,178.5C 535.094,178.027 534.427,177.027 534.5,175.5 Z"/></g>
<g><path style="opacity:0.357" fill="#767676" d="M 79.5,178.5 C 79.2624,180.404 78.2624,181.738 76.5,182.5C 76.7376,180.596 77.7376,179.262 79.5,178.5 Z"/></g>
<g><path style="opacity:0.935" fill="#131313" d="M 531.5,243.5 C 532.552,243.351 533.552,243.517 534.5,244C 533.167,244.667 531.833,245.333 530.5,246C 531.684,247.145 531.684,248.312 530.5,249.5C 523.839,252.742 516.672,254.409 509,254.5C 505.833,254.099 502.666,253.766 499.5,253.5C 497.485,252.076 495.152,251.41 492.5,251.5C 491.833,251.5 491.167,251.5 490.5,251.5C 489.365,249.787 487.698,249.12 485.5,249.5C 479.71,246.767 474.377,243.267 469.5,239C 461.137,230.303 452.47,221.969 443.5,214C 429.915,207.548 415.581,203.881 400.5,203C 340.835,199.702 281.169,199.702 221.5,203C 204.283,202.923 187.949,206.589 172.5,214C 169.335,216.335 166.335,218.835 163.5,221.5C 161.932,219.069 160.432,219.069 159,221.5C 158.617,220.944 158.117,220.611 157.5,220.5C 169.269,206.952 184.269,199.785 202.5,199C 225.434,196.546 248.434,195.212 271.5,195C 314.201,193.889 356.867,194.556 399.5,197C 411.583,198.869 423.583,201.203 435.5,204C 439.048,205.941 442.714,207.607 446.5,209C 456.344,217.566 465.677,226.566 474.5,236C 491.969,249.617 510.969,252.117 531.5,243.5 Z"/></g>
<g><path style="opacity:0.133" fill="#8b8b8b" d="M 67.5,193.5 C 67.573,195.027 66.9063,196.027 65.5,196.5C 65.427,194.973 66.0937,193.973 67.5,193.5 Z"/></g>
<g><path style="opacity:1" fill="#c3bfb9" d="M 66.5,87.5 C 66.3639,90.35 66.0305,93.1834 65.5,96C 66.2007,105.275 69.534,113.442 75.5,120.5C 84.5142,129.681 93.6808,138.681 103,147.5C 108.755,156.161 110.088,165.494 107,175.5C 103.196,183.611 100.696,192.111 99.5,201C 100.588,213.836 107.255,217.836 119.5,213C 130.513,206.492 141.846,200.492 153.5,195C 160.666,192.54 168,191.04 175.5,190.5C 162.019,195.468 151.686,204.301 144.5,217C 145.5,217.667 146.5,217.667 147.5,217C 155.735,205.759 166.069,197.092 178.5,191C 178.833,190.667 179.167,190.333 179.5,190C 178.552,189.517 177.552,189.351 176.5,189.5C 181.298,188.036 186.298,186.869 191.5,186C 236.701,181.337 282.034,179.171 327.5,179.5C 361.643,178.95 395.643,180.784 429.5,185C 447.138,189.823 463.805,196.823 479.5,206C 484.903,206.98 490.236,208.147 495.5,209.5C 501.248,209.531 506.081,207.531 510,203.5C 512.822,192.545 514.655,181.545 515.5,170.5C 515.338,172.527 515.505,174.527 516,176.5C 517.568,170.375 520.901,165.375 526,161.5C 526.582,167.495 528.248,173.162 531,178.5C 535.667,184.5 540.333,190.5 545,196.5C 550.342,204.903 551.675,213.903 549,223.5C 545.077,231.918 539.244,238.584 531.5,243.5C 510.969,252.117 491.969,249.617 474.5,236C 465.677,226.566 456.344,217.566 446.5,209C 442.714,207.607 439.048,205.941 435.5,204C 423.583,201.203 411.583,198.869 399.5,197C 356.867,194.556 314.201,193.889 271.5,195C 248.434,195.212 225.434,196.546 202.5,199C 184.269,199.785 169.269,206.952 157.5,220.5C 149.591,228.911 140.924,236.411 131.5,243C 108.455,253.563 88.2885,249.73 71,231.5C 66.2077,222.29 65.2077,212.623 68,202.5C 73.2781,194.222 78.9448,186.222 85,178.5C 87.7516,173.162 89.4183,167.495 90,161.5C 95.0986,165.375 98.4319,170.375 100,176.5C 101.242,171.306 100.242,166.64 97,162.5C 88.37,155.539 80.0367,148.205 72,140.5C 62.5639,129.191 58.5639,116.191 60,101.5C 61.395,96.3819 63.5617,91.7152 66.5,87.5 Z"/></g>
<g><path style="opacity:1" fill="#161514" d="M 93.5,199.5 C 97.35,199.701 98.35,201.534 96.5,205C 92.5369,205.118 91.5369,203.284 93.5,199.5 Z"/></g>
<g><path style="opacity:1" fill="#171715" d="M 176.5,189.5 C 177.552,189.351 178.552,189.517 179.5,190C 179.167,190.333 178.833,190.667 178.5,191C 166.069,197.092 155.735,205.759 147.5,217C 146.5,217.667 145.5,217.667 144.5,217C 151.686,204.301 162.019,195.468 175.5,190.5C 176.167,190.5 176.5,190.167 176.5,189.5 Z"/></g>
<g><path style="opacity:1" fill="#1f1d1a" d="M 102.5,192.5 C 106.161,192.35 107.161,193.85 105.5,197C 101.707,197.487 100.707,195.987 102.5,192.5 Z"/></g>
<g><path style="opacity:1" fill="#1c1c1a" d="M 279.5,183.5 C 300.914,183.221 322.247,184.054 343.5,186C 317.177,187.664 290.844,187.831 264.5,186.5C 264.709,185.914 265.043,185.414 265.5,185C 270.351,184.826 275.018,184.326 279.5,183.5 Z"/></g>
<g><path style="opacity:0.176" fill="#939393" d="M 553.5,202.5 C 554.924,204.515 555.59,206.848 555.5,209.5C 554.076,207.485 553.41,205.152 553.5,202.5 Z"/></g>
<g><path style="opacity:1" fill="#131210" d="M 75.5,204.5 C 76.4972,204.47 77.1639,204.97 77.5,206C 75.7108,211.897 76.5441,217.397 80,222.5C 83.9123,227.083 88.4123,230.917 93.5,234C 81.8116,231.975 75.1449,224.975 73.5,213C 73.7822,210.04 74.4488,207.207 75.5,204.5 Z"/></g>
<g><path style="opacity:1" fill="#141412" d="M 527.5,227.5 C 528.376,227.369 529.043,227.702 529.5,228.5C 521.364,237.961 511.031,241.794 498.5,240C 496.714,239.804 495.381,238.971 494.5,237.5C 506.718,238.19 517.718,234.856 527.5,227.5 Z"/></g>
<g><path style="opacity:0.986" fill="#191919" d="M 193.5,120.5 C 191.894,121.359 190.227,121.526 188.5,121C 187.402,121.77 187.402,122.603 188.5,123.5C 181.154,120.326 174.154,116.492 167.5,112C 156.466,101.298 145.133,90.9643 133.5,81C 121.126,71.1025 107.126,67.7692 91.5,71C 81.0794,73.5302 72.7461,79.0302 66.5,87.5C 63.5617,91.7152 61.395,96.3819 60,101.5C 58.5639,116.191 62.5639,129.191 72,140.5C 80.0367,148.205 88.37,155.539 97,162.5C 100.242,166.64 101.242,171.306 100,176.5C 98.4319,170.375 95.0986,165.375 90,161.5C 89.4183,167.495 87.7516,173.162 85,178.5C 78.9448,186.222 73.2781,194.222 68,202.5C 65.2077,212.623 66.2077,222.29 71,231.5C 88.2885,249.73 108.455,253.563 131.5,243C 140.924,236.411 149.591,228.911 157.5,220.5C 158.117,220.611 158.617,220.944 159,221.5C 160.432,219.069 161.932,219.069 163.5,221.5C 156.703,228.798 149.703,235.965 142.5,243C 138.845,245.827 134.845,247.993 130.5,249.5C 128.214,249.595 126.214,250.262 124.5,251.5C 111.475,255.712 98.4754,255.212 85.5,250C 82.7613,248.974 80.428,247.474 78.5,245.5C 78.0269,244.094 77.0269,243.427 75.5,243.5C 59.6556,230.46 56.3223,214.793 65.5,196.5C 66.9063,196.027 67.573,195.027 67.5,193.5C 69.7931,189.242 72.7931,185.576 76.5,182.5C 78.2624,181.738 79.2624,180.404 79.5,178.5C 80.9063,178.027 81.573,177.027 81.5,175.5C 82.9063,175.027 83.573,174.027 83.5,172.5C 85.1509,167.959 85.6509,163.293 85,158.5C 73.5228,150.691 64.5228,140.691 58,128.5C 48.3104,97.7155 58.477,76.8821 88.5,66C 104.707,61.7354 119.707,64.402 133.5,74C 146.796,84.9604 159.796,96.2937 172.5,108C 179.233,112.696 186.233,116.863 193.5,120.5 Z"/></g>
<g><path style="opacity:1" fill="#151311" d="M 98.5,109.5 C 101.91,109.384 103.244,111.05 102.5,114.5C 98.4242,114.706 97.0908,113.039 98.5,109.5 Z"/></g>
<g><path style="opacity:1" fill="#464040" d="M 87.5,107.5 C 91.1612,107.35 92.1612,108.85 90.5,112C 86.7071,112.487 85.7071,110.987 87.5,107.5 Z"/></g>
<g><path style="opacity:1" fill="#21201e" d="M 98.5,98.5 C 102.161,98.3501 103.161,99.8501 101.5,103C 97.7071,103.487 96.7071,101.987 98.5,98.5 Z"/></g>
<g><path style="opacity:1" fill="#44413a" d="M 85.5,91.5 C 86.8333,91.5 88.1667,91.5 89.5,91.5C 89.5,92.8333 89.5,94.1667 89.5,95.5C 88.1667,95.5 86.8333,95.5 85.5,95.5C 85.5,94.1667 85.5,92.8333 85.5,91.5 Z"/></g>
<g><path style="opacity:0.169" fill="#959595" d="M 75.5,243.5 C 77.0269,243.427 78.0269,244.094 78.5,245.5C 76.9731,245.573 75.9731,244.906 75.5,243.5 Z"/></g>
<g><path style="opacity:0.6" fill="#747474" d="M 485.5,249.5 C 487.698,249.12 489.365,249.787 490.5,251.5C 488.597,251.204 486.93,250.537 485.5,249.5 Z"/></g>
<g><path style="opacity:0.008" fill="#bcbcbc" d="M 130.5,249.5 C 128.898,251.074 126.898,251.741 124.5,251.5C 126.214,250.262 128.214,249.595 130.5,249.5 Z"/></g>
<g><path style="opacity:0.11" fill="#9b9b9b" d="M 492.5,251.5 C 495.152,251.41 497.485,252.076 499.5,253.5C 496.848,253.59 494.515,252.924 492.5,251.5 Z"/></g>
</svg>
